<svg width="278" height="161" viewBox="0 0 278 161" fill="none" xmlns="http://www.w3.org/2000/svg">
<g clip-path="url(#clip0_805_3015)">
<path d="M34.6742 151.374C34.6742 156.796 30.2024 161 22.7862 161C15.37 161 10.8613 156.796 10.8613 151.374C10.8613 145.953 15.3332 141.749 22.7862 141.749C30.2392 141.749 34.6742 145.949 34.6742 151.374ZM28.8627 151.374C28.8627 148.395 26.4557 146.225 22.7862 146.225C19.1167 146.225 16.7097 148.402 16.7097 151.374C16.7097 154.346 19.0799 156.568 22.7862 156.568C26.4925 156.568 28.8627 154.353 28.8627 151.374Z" fill="white"/>
<path d="M51.1073 148.892C52.3623 148.84 53.6168 149.008 54.8136 149.389C56.9189 150.191 58.2549 151.985 58.2549 154.582C58.2549 157.179 56.8416 159.088 54.74 159.889C53.7463 160.257 52.4066 160.426 50.6105 160.426H37.6919V142.246H56.7643V146.446H43.2347V148.892H51.1073ZM50.8019 155.844C51.2284 155.864 51.6552 155.811 52.0643 155.689C52.3393 155.593 52.5765 155.412 52.7413 155.172C52.9061 154.931 52.99 154.645 52.9807 154.354C52.9956 154.111 52.9382 153.869 52.8158 153.658C52.6933 153.447 52.5113 153.277 52.2925 153.17C51.8193 152.982 51.3098 152.902 50.8019 152.938H43.2347V155.844H50.8019Z" fill="white"/>
<path d="M72.8189 142.246C74.2052 142.189 75.5904 142.382 76.908 142.816C78.1891 143.248 79.2987 144.078 80.0752 145.184C80.8518 146.29 81.2547 147.615 81.2252 148.966C81.2563 150.324 80.8443 151.654 80.0515 152.757C79.2586 153.86 78.1281 154.675 76.8307 155.079C75.526 155.442 74.1721 155.597 72.8189 155.538H66.9706V160.427H61.4277V142.246H72.8189ZM66.9706 151.257H72.0166C72.6993 151.294 73.3835 151.217 74.0408 151.029C74.4778 150.883 74.8556 150.6 75.1177 150.221C75.3798 149.843 75.5121 149.389 75.4946 148.929C75.5106 148.504 75.3941 148.085 75.1614 147.729C74.9287 147.374 74.5911 147.099 74.1954 146.943C73.495 146.705 72.7556 146.601 72.0166 146.638H66.9706V151.257Z" fill="white"/>
<path d="M87.8023 157.789L86.7681 160.426H80.5112L87.9643 142.246H96.0614L103.514 160.426H97.2796L96.2086 157.789H87.8023ZM89.1752 153.773H94.8726L92.2337 146.439H91.8141L89.1752 153.773Z" fill="white"/>
<path d="M114.939 141.595C116.756 141.558 118.57 141.777 120.327 142.246C123.043 143.007 124.493 144.688 124.493 146.714C124.493 148.815 123.235 150.19 121.321 150.992C123.654 151.566 125.001 153.199 125.001 155.269C125.001 157.638 123.474 159.51 120.875 160.271C119.576 160.639 117.968 160.959 114.795 160.959C112.237 160.959 110.01 160.731 108.538 160.198C106.33 159.392 104.755 157.789 104.449 155.155H110.566C110.66 155.499 110.829 155.817 111.06 156.088C111.29 156.358 111.578 156.575 111.902 156.722C112.838 157.091 113.841 157.26 114.847 157.219C116.911 157.219 117.482 156.95 118.019 156.759C118.374 156.648 118.682 156.423 118.897 156.119C119.111 155.815 119.219 155.45 119.204 155.078C119.213 154.752 119.112 154.431 118.918 154.168C118.724 153.905 118.448 153.714 118.133 153.625C117.636 153.434 117.103 153.397 115.494 153.397H110.618V149.271H115.13C115.951 149.32 116.775 149.256 117.578 149.079C117.917 148.998 118.217 148.801 118.426 148.523C118.635 148.244 118.74 147.901 118.722 147.553C118.722 146.942 118.38 146.255 117.386 145.872C116.492 145.552 115.545 145.41 114.596 145.453C113.764 145.412 112.932 145.537 112.149 145.821C111.786 145.943 111.455 146.143 111.178 146.407C110.9 146.67 110.684 146.991 110.544 147.347H104.582C104.887 144.978 106.451 143.224 108.862 142.419C110.828 141.81 112.882 141.532 114.939 141.595Z" fill="white"/>
<path d="M150.599 151.374C150.599 156.796 146.127 161 138.711 161C131.295 161 126.786 156.796 126.786 151.374C126.786 145.953 131.258 141.749 138.711 141.749C146.164 141.749 150.599 145.949 150.599 151.374ZM144.791 151.374C144.791 148.395 142.38 146.225 138.711 146.225C135.042 146.225 132.634 148.402 132.634 151.374C132.634 154.346 135.005 156.568 138.711 156.568C142.417 156.568 144.791 154.353 144.791 151.374Z" fill="white"/>
<path d="M170.857 150.992C173.15 151.64 174.169 153.435 174.169 155.229C174.179 156.258 173.867 157.263 173.277 158.106C172.687 158.948 171.849 159.586 170.879 159.93C169.885 160.298 168.704 160.426 167.095 160.426H153.617V142.246H166.845C168.527 142.246 169.712 142.36 170.629 142.665C172.73 143.353 173.801 144.957 173.801 146.906C173.801 148.855 172.502 150.264 170.857 150.992ZM166.116 149.426C166.531 149.451 166.947 149.398 167.342 149.271C167.637 149.161 167.89 148.963 168.068 148.704C168.246 148.444 168.339 148.136 168.336 147.822C168.349 147.52 168.262 147.221 168.089 146.973C167.916 146.724 167.667 146.539 167.379 146.446C166.97 146.324 166.543 146.272 166.116 146.292H158.895V149.426H166.116ZM166.308 156.226C166.734 156.246 167.161 156.194 167.57 156.072C167.873 155.968 168.135 155.768 168.314 155.503C168.493 155.237 168.581 154.92 168.564 154.6C168.576 154.309 168.493 154.021 168.328 153.78C168.163 153.54 167.924 153.359 167.647 153.265C167.213 153.139 166.76 153.086 166.308 153.111H158.895V156.208L166.308 156.226Z" fill="white"/>
<path d="M182.219 157.789L181.188 160.426H174.931L182.384 142.246H190.481L197.934 160.426H191.689L190.617 157.789H182.219ZM183.595 153.78H189.292L186.635 146.446H186.216L183.595 153.78Z" fill="white"/>
<path d="M205.792 153.666V160.426H200.253V142.246H205.796V148.892H214.703V142.246H220.245V160.426H214.699V153.666H205.792Z" fill="white"/>
<path d="M239.542 142.246H244.419V160.426H238.898V149.845L229.329 160.426H224.445V142.246H229.988V152.824L239.542 142.246Z" fill="white"/>
<path d="M267.139 146.417H254.18V149.433H266.373V153.063H254.18V156.27H267.139V160.434H248.637V142.246H267.139V146.417Z" fill="white"/>
<path d="M101.187 0.5H176.808V38.5085C176.809 43.2709 175.555 47.9496 173.172 52.074C170.79 56.1985 167.362 59.6234 163.235 62.0043L163.235 62.0044L138.998 75.991L114.747 62.0044C114.747 62.0043 114.747 62.0043 114.747 62.0043C110.62 59.6228 107.193 56.1978 104.81 52.0734C102.427 47.9492 101.173 43.2709 101.173 38.5087C101.173 38.5086 101.173 38.5085 101.173 38.5085L101.187 0.5Z" stroke="white"/>
<path fill-rule="evenodd" clip-rule="evenodd" d="M121.718 20.2617V32.2372C123.356 30.3982 126.337 29.1367 129.742 29.1367H133.444V43.0652C133.444 46.7689 132.44 50.0129 130.945 51.7967H147.048C145.557 50.0092 144.552 46.7726 144.552 43.0726V29.144H148.255C151.663 29.144 154.644 30.3946 156.282 32.2446V20.2617H121.718Z" fill="white"/>
<path d="M262.332 100.648V103.223C272.152 103.436 278 107.567 278 114.856C278 122.146 272.152 125.957 262.332 126.188V128.763H254.552V126.188C244.787 125.975 238.939 122.168 238.939 114.875C238.939 107.581 244.787 103.455 254.552 103.241V100.667L262.332 100.648ZM254.552 120.701V108.744C249.186 108.961 246.823 111.425 246.823 114.856C246.823 118.288 249.204 120.487 254.552 120.701ZM262.332 108.744V120.701C267.75 120.487 270.061 118.288 270.061 114.856C270.061 111.425 267.75 108.961 262.332 108.744Z" fill="white"/>
<path d="M220.779 100.648V103.223C230.599 103.436 236.447 107.567 236.447 114.856C236.447 122.146 230.599 125.957 220.779 126.188V128.763H213.002V126.188C203.238 125.975 197.39 122.168 197.39 114.875C197.39 107.581 203.238 103.455 213.002 103.241V100.667L220.779 100.648ZM213.002 120.701V108.744C207.636 108.961 205.273 111.425 205.273 114.856C205.273 118.288 207.636 120.487 213.002 120.701ZM220.779 108.744V120.701C226.201 120.487 228.508 118.288 228.508 114.856C228.508 111.425 226.201 108.961 220.779 108.744Z" fill="white"/>
<path d="M178.17 101.398C188.578 101.398 194.857 107.283 194.857 114.911C194.857 122.539 188.593 128.424 178.17 128.424C167.746 128.424 161.431 122.539 161.431 114.911C161.431 107.283 167.721 101.398 178.17 101.398ZM178.17 122.205C183.322 122.205 186.701 119.093 186.701 114.911C186.701 110.729 183.322 107.673 178.17 107.673C173.017 107.673 169.638 110.729 169.638 114.911C169.638 119.093 172.98 122.205 178.17 122.205Z" fill="white"/>
<path d="M142.539 117.967H140.393V127.618H132.612V102.097H140.393V111.693H142.539L151.928 102.097H161.696L149.248 114.322L162.178 127.618H151.821L142.539 117.967Z" fill="white"/>
<path d="M117.073 127.618H101.28V102.097H109.061V108.96H117.073C119.006 108.96 121.045 109.011 122.76 109.655C126.356 110.997 128.608 113.947 128.608 118.181C128.608 122.631 125.98 125.904 121.957 127.03C120.365 127.451 118.721 127.649 117.073 127.618ZM115.73 114.966H109.061V121.45H115.712C117.055 121.45 117.92 121.45 118.77 121.082C119.364 120.839 119.872 120.423 120.226 119.887C120.58 119.352 120.766 118.723 120.758 118.081C120.768 117.458 120.574 116.848 120.206 116.345C119.838 115.842 119.316 115.473 118.719 115.293C117.809 114.966 116.786 114.966 115.712 114.966H115.73Z" fill="white"/>
<path d="M87.6072 118.129H75.1156V127.618H67.3276V102.097H75.1156V111.424H87.6293V102.097H95.4099V127.618H87.6072V118.129Z" fill="white"/>
<path d="M41.1556 116.948L54.5674 102.097H61.4352V127.618H53.6546V112.767L40.2428 127.618H33.375V102.097H41.1556V116.948Z" fill="white"/>
<path d="M19.102 127.618H11.0528V108.901H0.0112305V102.097H30.1657V108.901H19.1241L19.102 127.618Z" fill="white"/>
</g>
<defs>
<clipPath id="clip0_805_3015">
<rect width="278" height="161" fill="white"/>
</clipPath>
</defs>
</svg>
