<svg width="61" height="61" viewBox="0 0 61 61" fill="none" xmlns="http://www.w3.org/2000/svg">
<circle cx="30.5" cy="30.5" r="30.5" fill="#C13100"/>
<path d="M18 29C16.8954 29 16 29.8954 16 31C16 32.1046 16.8954 33 18 33L18 29ZM44.4142 32.4142C45.1953 31.6332 45.1953 30.3668 44.4142 29.5858L31.6863 16.8579C30.9052 16.0768 29.6389 16.0768 28.8579 16.8579C28.0768 17.6389 28.0768 18.9052 28.8579 19.6863L40.1716 31L28.8579 42.3137C28.0768 43.0948 28.0768 44.3611 28.8579 45.1421C29.6389 45.9232 30.9052 45.9232 31.6863 45.1421L44.4142 32.4142ZM18 33L43 33L43 29L18 29L18 33Z" fill="white"/>
</svg>
