<svg  viewBox="0 0 6 6" fill="white" xmlns="http://www.w3.org/2000/svg">
<path d="M0.717157 4.95983C0.560948 5.11604 0.560948 5.36931 0.717157 5.52552C0.873367 5.68173 1.12663 5.68173 1.28284 5.52552L0.717157 4.95983ZM5.64264 1.00004C5.64264 0.779121 5.46355 0.600035 5.24264 0.600035L1.64264 0.600035C1.42173 0.600035 1.24264 0.779121 1.24264 1.00004C1.24264 1.22095 1.42173 1.40004 1.64264 1.40004H4.84264V4.60004C4.84264 4.82095 5.02173 5.00004 5.24264 5.00004C5.46355 5.00004 5.64264 4.82095 5.64264 4.60004L5.64264 1.00004ZM1.28284 5.52552L5.52548 1.28288L4.9598 0.717192L0.717157 4.95983L1.28284 5.52552Z" fill="white"/>
</svg>
