<svg width="104" height="118" viewBox="0 0 104 118" fill="none" xmlns="http://www.w3.org/2000/svg">
<path d="M54.2333 117.111C36.1593 94.9231 18.074 72.7353 0 50.5476C20.7947 33.6984 41.5781 16.8492 62.3728 0C57.4394 12.3328 52.2464 29.013 49.9208 49.2073C46.6244 77.7698 50.4175 101.534 54.2333 117.122V117.111Z" fill="white"/>
<path d="M55.2147 41.0528C53.9729 46.7631 52.6295 54.5344 52.1102 63.8375C51.6812 71.5751 51.9747 77.398 52.257 82.7816C52.6747 90.598 53.623 100.982 55.8356 113.225C56.5356 102.514 58.7483 86.9939 65.646 69.5816C72.4421 52.4395 81.2702 39.7576 88.0211 31.502C77.0819 34.6893 66.1427 37.8767 55.2147 41.0641V41.0528Z" fill="white"/>
<path d="M103.296 62.9818C93.3387 62.8353 83.3817 62.6777 73.4246 62.5312C70.3539 67.9487 67.0462 74.7627 64.269 82.9057C61.3339 91.5105 59.7647 99.3269 58.918 105.747C64.2239 99.1129 70.512 91.9835 77.8838 84.719C86.7233 76.0128 95.3934 68.8384 103.296 62.993V62.9818Z" fill="white"/>
</svg>
