<svg width="61" height="61" viewBox="0 0 61 61" fill="none" xmlns="http://www.w3.org/2000/svg">
<circle cx="30.5" cy="30.5" r="30.5" transform="matrix(-1 0 0 1 61 0)" fill="#C13100" fill-opacity="0.7"/>
<path d="M43 29C44.1046 29 45 29.8954 45 31C45 32.1046 44.1046 33 43 33L43 29ZM16.5858 32.4142C15.8047 31.6332 15.8047 30.3668 16.5858 29.5858L29.3137 16.8579C30.0948 16.0768 31.3611 16.0768 32.1421 16.8579C32.9232 17.6389 32.9232 18.9052 32.1421 19.6863L20.8284 31L32.1421 42.3137C32.9232 43.0948 32.9232 44.3611 32.1421 45.1421C31.3611 45.9232 30.0948 45.9232 29.3137 45.1421L16.5858 32.4142ZM43 33L18 33L18 29L43 29L43 33Z" fill="white"/>
</svg>
