<svg width="112" height="114" viewBox="0 0 112 114" fill="none" xmlns="http://www.w3.org/2000/svg">
<path d="M107.288 36.2002C89.4738 28.1696 103.749 20.329 92.6154 12.6439C91.5279 12.0222 72.9373 1.28021 72.9373 1.28021C70.0201 -0.412247 66.4125 -0.429517 63.478 1.24567C52.6723 9.6389 48.6849 -3.96987 39.0703 1.28021L19.3404 12.6784C16.4232 14.3709 14.6108 17.4795 14.5763 20.8471C17.0101 36.6665 0.577221 32.1763 0.0075927 44.438V69.5313C-0.234068 75.4549 5.34139 78.3045 9.81211 80.705C18.4256 85.178 10.727 96.8007 19.3404 101.291L39.0703 112.689C43.0232 115.141 47.6492 113.673 51.1878 111.204C60.1293 106.023 63.9613 117.784 72.9373 112.689C72.9373 112.689 91.5624 101.93 92.6154 101.325C103.283 94.0375 90.147 84.988 107.305 77.7691C110.205 76.0594 112 72.9335 112 69.5486V44.4553C112 41.0703 110.205 37.9445 107.288 36.2347M106.666 66.8199C106.597 67.7352 105.613 68.2879 104.802 67.8389C102.42 66.5263 99.7444 64.9202 99.9515 62.0016V57.5805C99.9515 56.2161 100.297 54.8864 101.004 53.7293C102.575 51.1388 100.763 47.063 97.3278 47.1839C93.8927 47.063 92.0803 51.1388 93.6511 53.7293C94.3588 54.9036 94.7213 56.2507 94.7213 57.615C94.5832 68.5815 93.979 67.7525 102.282 72.4154C106.148 76.4048 89.9226 75.0577 92.1838 90.2208C92.1666 91.1879 91.0964 91.7751 90.2678 91.257C88.9905 90.4799 87.7822 89.53 87.1435 88.2175C85.6763 85.5579 81.2401 85.0916 79.6348 88.1311C77.805 91.0498 80.4288 94.6592 83.4668 94.5901C84.934 94.4865 86.3667 95.0737 87.6786 95.799C88.5071 96.248 88.5589 97.4224 87.7822 97.9405C84.209 100.324 76.3723 104.814 72.5575 106.731C71.729 107.145 70.7451 106.541 70.7451 105.608V84.09C70.7451 82.2421 71.7463 80.5323 73.3516 79.6343C75.6991 78.4427 79.8074 75.2477 82.5865 75.5068C84.8822 75.5758 87.0744 73.6761 87.0227 71.2238C87.0227 66.63 81.0329 65.6628 79.0651 68.9441C77.6497 71.8801 71.2975 74.5742 68.7082 76.2666C66.7404 77.4065 65.5149 79.5134 65.5149 81.793V105.695C65.5149 106.8 64.2375 107.318 63.409 106.662C60.4573 104.952 58.6448 101.809 58.6448 98.4068V76.5948C58.6448 75.4204 59.0073 74.2633 59.6287 73.2789C61.4412 70.5675 59.3525 66.6127 56.0383 66.6818C52.7069 66.5609 50.5492 70.5848 52.4134 73.2962C53.0521 74.2806 53.38 75.4377 53.38 76.6293V98.4068C53.4146 101.93 51.3605 105.211 48.3224 106.835C47.4766 107.284 46.4755 106.679 46.4755 105.729C46.8207 102.223 45.4916 88.442 47.6147 85.5579C49.0474 82.9501 47.235 79.0298 43.8517 79.1507C40.3649 79.0298 38.5352 83.2092 40.2441 85.7997C41.0381 86.905 41.2107 88.3902 41.2452 89.8409C41.2625 90.8771 40.0887 91.4815 39.2602 90.8771C38.3626 90.2208 37.5513 89.4437 37.1025 88.4247C35.3073 84.8498 28.9896 85.7133 29.0069 90.4453C28.9551 92.9149 31.1473 94.8146 33.4431 94.7456C35.2037 94.6247 36.8953 95.54 38.3453 96.438C41.6077 97.975 41.3488 102.31 41.2452 105.695C41.228 106.627 40.2268 107.197 39.4155 106.765C35.29 104.624 25.7962 98.8904 24.6224 98.3032C18.9607 95.1082 20.1172 89.8927 19.6684 84.6081C19.6339 84.1245 19.8583 83.6582 20.2898 83.4164L42.816 70.3948C48.8921 66.9754 43.9725 57.7359 47.1659 52.7794C50.3248 44.1789 36.412 44.3171 39.7262 52.8485C40.4167 54.0229 40.7792 55.3699 40.7619 56.7515C40.6066 59.8601 41.7286 65.2829 38.2417 66.9926C37.9138 67.1826 35.8424 68.3742 35.8079 68.3915C34.2716 69.2896 32.3383 68.167 32.3383 66.3882V64.2467C32.3383 62.4852 32.7699 60.7754 33.5466 59.2039C34.8412 56.5961 33.0288 52.8139 29.7146 52.9348C26.3313 52.8139 24.5189 56.7515 25.9516 59.342C26.6938 60.6718 27.0908 62.157 27.0908 63.6768V70.084C27.4706 74.5051 21.0838 76.7502 17.7524 78.7535C17.3208 79.0126 16.7685 78.9953 16.3542 78.6844C11.7627 75.2132 5.04794 73.607 5.23782 66.5263C5.30686 65.4901 5.09973 52.4858 5.2896 47.4084C5.32412 46.4759 6.32529 45.9059 7.13658 46.355C9.60497 47.702 12.5049 49.3254 12.3323 52.2958C12.2978 52.7449 12.3323 56.8551 12.3323 56.8897C12.3323 58.254 11.9698 59.6011 11.2621 60.7754C9.69128 63.3659 11.5037 67.4417 14.9388 67.3208C18.3738 67.4417 20.2035 63.3659 18.6155 60.7754C17.9077 59.6183 17.5625 58.2713 17.5625 56.9242C17.7524 45.4915 18.1667 46.5795 9.60497 41.7611C5.87649 38.5316 20.7386 37.0119 19.8065 28.0833C19.8238 27.0989 19.7547 25.2855 19.8238 23.7658C19.8583 22.8332 20.8594 22.2806 21.6707 22.7296C24.3808 24.2148 27.6087 26.0109 27.3843 29.344C27.3843 31.8481 27.695 35.2849 26.1932 37.4609C22.9999 46.0786 37.068 45.785 33.5984 37.2882C32.8734 36.0102 32.58 34.5423 32.6318 33.0916C32.6318 31.3128 34.5651 30.1902 36.1013 31.0883C38.0001 32.2108 40.7101 33.437 41.7458 35.5094C43.213 38.169 47.632 38.6007 49.2373 35.5785C51.0498 32.6771 48.4951 29.1368 45.5088 29.1195C43.9898 29.1195 42.4881 28.7395 41.1762 27.9797L24.3117 18.2394C23.5005 17.7731 23.4659 16.616 24.2427 16.1152C27.8331 13.7319 35.6353 9.24169 39.45 7.32472C40.2786 6.91024 41.2625 7.51469 41.2625 8.44727C41.3488 10.4506 41.1589 12.523 40.1232 14.2845C38.6905 16.8923 40.503 20.8126 43.8862 20.6917C47.2695 20.8126 49.0819 16.875 47.6492 14.2845C46.5963 12.5057 46.4237 10.3815 46.51 8.37819C47.6492 4.00888 54.1396 12.1431 53.38 15.6834V44.1617C52.6205 54.4546 56.7288 57.2005 65.0833 61.6389C65.394 61.8116 65.6012 62.1052 65.6702 62.4506C66.4642 66.0428 71.8843 67.0444 73.7141 63.5732C75.7854 60.2573 72.2468 56.078 68.76 57.166C68.432 57.2696 68.0696 57.2351 67.7589 57.0624C63.5125 54.8691 58.7829 52.0713 58.7829 46.6658C58.5585 45.6814 58.6448 17.6177 58.6448 15.7007C58.6448 12.2985 60.4573 9.13807 63.409 7.44561C64.2548 6.80662 65.5149 7.29018 65.5149 8.41273V19.6555C65.394 22.7468 68.1904 24.2839 70.5552 25.5273C71.7635 26.2354 72.7474 27.2543 73.4206 28.4805C74.8878 31.1401 79.3068 31.6236 80.9294 28.5668C82.7418 25.6828 80.1871 22.0733 77.1664 22.1079C73.6278 22.1424 70.7451 19.241 70.7451 15.7007V8.43C70.7451 7.48015 71.7463 6.8757 72.5748 7.30745C76.7521 9.48347 86.1941 15.1826 87.4542 15.8216C93.185 19.1201 91.8213 24.353 92.3737 29.6721C92.4255 30.173 92.1838 30.6392 91.7523 30.8983C88.8006 32.1763 71.8843 43.5572 68.7255 42.9355C66.4988 42.9873 64.4274 44.8352 64.4792 47.2357C64.4792 51.9159 70.676 52.8139 72.5403 49.3427C73.3688 47.7193 74.8878 46.5967 76.4759 45.7678C78.0122 44.8697 79.9455 45.9923 79.9455 47.7711C79.98 49.878 80.0663 52.4167 78.8235 54.2301C77.2872 56.8206 79.0824 60.879 82.5174 60.7582C85.9352 60.879 87.7649 56.8379 86.2114 54.2474C85.5209 53.073 85.1757 51.7432 85.1757 50.3789C84.6924 39.0843 85.8661 40.4486 94.3588 35.4403C94.7903 35.1813 95.3427 35.2158 95.7397 35.5094C100.435 38.9979 106.753 40.2932 106.735 47.5639C106.563 52.7621 107.011 61.0863 106.649 66.9063" fill="white"/>
</svg>
