<svg width="53" height="30" viewBox="0 0 53 30" fill="none" xmlns="http://www.w3.org/2000/svg">
<path d="M0 2.1746C0.137007 1.94675 0.330053 1.75777 0.560759 1.62564C0.791465 1.49351 1.05215 1.42263 1.318 1.41974C1.58999 1.40417 1.86317 1.37901 2.13636 1.37661C4.35699 1.36303 6.57762 1.35185 8.79826 1.34306C9.94012 1.34306 10.6902 1.8415 11.1946 2.9007C12.5182 5.6661 13.8897 8.41074 15.3092 11.1346C15.8987 12.2717 16.6571 13.3165 17.678 14.1301C17.9158 14.3239 18.1811 14.4814 18.4652 14.5974C19.0966 14.8442 19.5771 14.6357 19.903 14.0462C20.3955 13.1667 20.4338 12.1866 20.5464 11.2233C20.8064 8.98867 20.7741 6.76484 20.32 4.5482C20.0492 3.2302 19.2416 2.51129 17.9656 2.25008C17.3113 2.11589 17.2682 1.94934 17.7259 1.4509C18.2417 0.866271 18.9458 0.480536 19.7161 0.36055C22.6708 -0.080381 25.6327 -0.143885 28.5922 0.32101C30.0528 0.549863 30.604 1.0543 30.7346 2.77848C30.8352 4.10248 30.725 5.44085 30.7094 6.77323C30.6903 8.54893 30.6471 10.3258 30.6663 12.1015C30.6772 12.6299 30.7793 13.1524 30.9682 13.646C31.3588 14.6908 32.1664 14.8442 33.0051 14.1432C34.3878 12.999 35.3128 11.5037 36.2618 10.0203C37.686 7.7697 38.8951 5.38999 39.8731 2.91268C40.4027 1.59468 40.6388 1.45449 42.0382 1.44371C44.7941 1.42214 47.5391 1.37781 50.2889 1.36223C50.7141 1.35633 51.1378 1.41203 51.547 1.52758C52.3318 1.75883 52.5775 2.20216 52.4373 3.00494C52.2204 4.24146 51.6477 5.34259 50.9467 6.35146C49.1602 8.91198 47.3019 11.4246 45.4782 13.9599C45.0708 14.5279 44.6503 15.091 44.3004 15.6949C43.7013 16.7253 43.796 17.6455 44.6275 18.5034C45.8257 19.7412 47.0874 20.9214 48.3047 22.1435C49.6323 23.4759 50.9024 24.861 51.8669 26.4905C52.066 26.8263 52.221 27.1863 52.3282 27.5617C52.6973 28.8869 52.0563 29.5986 50.7706 29.7316C49.618 29.8514 48.4521 29.8239 47.2959 29.8514C45.7934 29.8898 44.2908 29.9437 42.7871 29.9449C41.542 29.946 40.3397 29.4903 39.4082 28.664C38.3682 27.7618 37.4492 26.7194 36.4799 25.7357C35.7741 25.0168 35.0792 24.2907 34.3627 23.5849C34.161 23.4007 33.9338 23.2465 33.6881 23.1272C33.0531 22.8013 32.587 22.8744 32.0526 23.3561C31.1216 24.1948 30.8987 25.3355 30.7586 26.4989C30.6962 27.0057 30.7022 27.521 30.6687 28.0326C30.6004 29.075 30.1031 29.6693 29.0691 29.7532C24.5604 30.121 20.2876 29.5842 16.4139 26.9063C13.8378 25.1246 11.7494 22.9415 9.8934 20.4637C5.92262 15.1701 2.86725 9.37089 0.208484 3.34522C0.141386 3.19305 0.0694946 3.04328 0 2.89231V2.1746Z" fill="white"/>
</svg>
